<svg width="693" height="452" viewBox="0 0 693 452" fill="none" xmlns="http://www.w3.org/2000/svg">
<g clip-path="url(#clip0)">
<path opacity="0.1" d="M358.423 81.2881C314.657 88.6731 270.952 85.5072 228.909 80.9023C186.866 76.2975 144.927 70.2842 101.142 72.0968C72.9767 73.2602 41.6099 78.8326 21.9436 95.0293C3.01318 110.607 0.0635376 131.629 0.0267437 150.606C-0.0223147 164.88 1.21641 179.65 11.347 191.021C18.3869 198.908 29.2227 204.56 37.3848 211.841C65.7835 237.131 57.1492 276.952 38.5131 310.809C29.7684 326.693 19.0737 342.315 13.1192 358.572C7.16475 374.83 6.37369 392.252 17.0316 405.509C27.5915 418.656 48.0182 426.066 69.3157 429.905C112.573 437.706 160.767 432.863 207.397 426.298C310.598 411.718 412.731 388.988 514.644 366.313C552.352 357.917 590.225 349.485 626.553 337.385C646.728 330.649 667.271 322.266 680.302 309.217C696.859 292.684 697.277 270.069 681.32 256.555C654.547 233.898 593.947 238.925 573.238 213.023C561.844 198.761 566.805 179.393 575.875 162.284C595.321 125.592 632.906 89.3405 628.037 52.7587C624.676 27.6524 599.037 6.87537 564.671 1.4622C528.65 -4.20816 482.388 6.54471 461.649 31.8103C440.327 57.8413 397.069 74.7482 358.423 81.2881Z" fill="#6C63FF"/>
<path d="M394.571 219.981H220.763V260.169H394.571V219.981Z" fill="#565661"/>
<path opacity="0.1" d="M394.571 219.981H220.763V260.169H394.571V219.981Z" fill="black"/>
<path d="M241.558 261.492L242.778 368.782L226.062 410.923L224.768 261.492H241.558Z" fill="#BCBEC9"/>
<path d="M222.597 227.696L391.818 228.713V258.645H222.597V227.696Z" fill="#565661"/>
<path d="M377.339 261.492L391.818 263.531V409.295L377.339 364.709V261.492Z" fill="#BCBEC9"/>
<path d="M478.872 221.591H397.318V394.641H478.872V221.591Z" fill="#EFEFF0"/>
<path d="M472.347 226.398H403.843V359.419H472.347V226.398Z" fill="#565661"/>
<path opacity="0.1" d="M472.347 226.398H403.843V359.419H472.347V226.398Z" fill="black"/>
<path d="M472.347 229.123H403.843V258.644H472.347V229.123Z" fill="#565661"/>
<path d="M472.347 261.492H403.843V324.196H472.347V261.492Z" fill="#565661"/>
<path d="M472.347 328.066H403.843V390.771H472.347V328.066Z" fill="#565661"/>
<path opacity="0.1" d="M472.347 328.066H403.843V390.771H472.347V328.066Z" fill="black"/>
<path d="M406.701 405.908C409.139 405.908 411.116 403.386 411.116 400.275C411.116 397.163 409.139 394.641 406.701 394.641C404.262 394.641 402.286 397.163 402.286 400.275C402.286 403.386 404.262 405.908 406.701 405.908Z" fill="#565661"/>
<path d="M467.932 406.178C470.37 406.178 472.347 403.656 472.347 400.544C472.347 397.433 470.37 394.911 467.932 394.911C465.493 394.911 463.517 397.433 463.517 400.544C463.517 403.656 465.493 406.178 467.932 406.178Z" fill="#565661"/>
<path d="M220.15 410.924H226.062L224.437 223.091H215.459L220.15 410.924Z" fill="#EFEFF0"/>
<path d="M391.818 221.591V409.295H397.319V223.091L391.818 221.591Z" fill="#EFEFF0"/>
<path d="M224.725 256.807V263.531H391.818V258.644L224.725 256.807Z" fill="#EFEFF0"/>
<path d="M236.051 208.97H447.886L478.67 219.148V225.051L214.441 223.018V217.011L236.051 208.97Z" fill="white"/>
<path d="M214.441 217.011L478.67 219.148V225.051L214.441 223.018V217.011Z" fill="#BCBEC9"/>
<path d="M238.375 287.014L237.149 286.831C237.149 286.776 237.149 286.727 237.149 286.678C237.112 286.39 237.069 286.108 237.026 285.82C237.529 286.218 238.007 286.616 238.449 287.014H238.375Z" fill="url(#paint0_linear)"/>
<path d="M211.724 381.568C212.521 381.384 213.331 381.231 214.14 381.121C219.7 380.33 225.369 381.164 230.464 383.521C229.949 387.305 229.44 391.218 230.532 394.874C231.292 397.446 232.819 399.773 233.144 402.455C233.963 402.595 234.727 402.961 235.35 403.51C235.972 404.06 236.43 404.771 236.67 405.566C236.906 406.268 237.024 407.005 237.02 407.746C237.013 408.662 236.898 409.575 236.676 410.464C236.602 411.175 236.253 411.829 235.703 412.286C235.153 412.744 234.446 412.969 233.733 412.914C228.987 413.453 224.332 411.585 219.917 409.754L211.332 406.19C210.326 405.774 209.314 405.351 208.351 404.837C206.525 403.852 204.904 402.528 203.574 400.936C203.293 400.652 203.096 400.296 203.004 399.907C202.845 398.83 204.108 398.187 204.911 397.458C205.146 397.236 205.352 396.985 205.524 396.711C206.475 395.278 206.567 393.3 207.137 391.61C208.486 387.599 212.656 385.015 214.128 381.102C214.208 380.888 214.281 380.674 214.343 380.453" fill="#A26565"/>
<path opacity="0.1" d="M237.02 407.745C237.013 408.662 236.898 409.575 236.677 410.464C236.602 411.175 236.253 411.829 235.703 412.286C235.153 412.743 234.446 412.969 233.733 412.914C228.987 413.453 224.332 411.585 219.917 409.754L211.332 406.19C210.326 405.774 209.314 405.351 208.351 404.837C206.525 403.852 204.904 402.528 203.574 400.936C203.293 400.652 203.096 400.296 203.004 399.907C202.845 398.83 204.108 398.187 204.911 397.458C205.146 397.236 205.352 396.985 205.524 396.711C207.891 397.219 210.829 398.707 212.638 399.283C214.45 399.776 216.19 400.502 217.814 401.444C220.07 402.89 221.695 405.119 223.609 406.956C225.522 408.793 227.993 410.464 230.661 410.238C232.071 410.025 233.431 409.556 234.671 408.854L237.02 407.745Z" fill="black"/>
<path d="M226.969 320.724C227.128 321.28 227.114 321.871 226.928 322.418C226.741 322.966 226.392 323.443 225.926 323.786C225.123 324.282 224.087 324.215 223.29 324.754C222.302 325.446 222.161 326.817 221.99 328.005C221.376 332.09 219.347 335.794 217.611 339.548C215.876 343.302 214.41 347.398 215.048 351.477C215.483 354.244 216.845 357.196 215.569 359.688C215.256 360.301 214.79 360.846 214.435 361.44C212.687 364.354 213.68 368.047 213.613 371.439C213.638 371.816 213.555 372.192 213.374 372.523C213.106 372.836 212.776 373.09 212.405 373.27C211.782 373.727 211.271 374.319 210.909 375C210.547 375.682 210.343 376.437 210.314 377.208C210.262 378.75 210.448 380.29 210.866 381.776C210.933 382.375 211.198 382.935 211.62 383.368C212.108 383.69 212.684 383.853 213.269 383.833C217.122 384.145 220.901 385.063 224.467 386.552C226.791 387.52 229.048 388.732 231.519 389.197C231.758 389.272 232.01 389.296 232.259 389.27C232.507 389.244 232.748 389.167 232.966 389.044C233.277 388.764 233.492 388.394 233.58 387.985C234.53 384.862 235.493 381.641 235.168 378.396C235.027 376.999 234.653 375.634 234.555 374.238C234.125 368.727 237.86 363.754 239.043 358.317C239.577 355.867 239.577 353.332 239.957 350.858C240.987 344.08 244.728 337.999 246.169 331.294C246.37 330.044 246.682 328.814 247.101 327.62C248.175 325.023 250.658 322.917 250.713 320.106C250.747 319.488 250.584 318.875 250.247 318.355C249.669 317.721 248.901 317.291 248.058 317.13C244.726 316.215 241.335 315.531 237.909 315.085C236.339 314.777 234.736 314.666 233.138 314.754C231.063 314.998 229.069 315.701 227.3 316.812C224.933 318.269 226.454 318.618 226.969 320.724Z" fill="#454B69"/>
<path opacity="0.05" d="M226.969 320.724C227.128 321.28 227.114 321.871 226.928 322.418C226.741 322.966 226.392 323.443 225.926 323.786C225.123 324.282 224.087 324.215 223.29 324.754C222.302 325.446 222.161 326.817 221.99 328.005C221.376 332.09 219.347 335.794 217.611 339.548C215.876 343.302 214.41 347.398 215.048 351.477C215.483 354.244 216.845 357.196 215.569 359.688C215.256 360.301 214.79 360.846 214.435 361.44C212.687 364.354 213.68 368.047 213.613 371.439C213.638 371.816 213.555 372.192 213.374 372.523C213.106 372.836 212.776 373.09 212.405 373.27C211.782 373.727 211.271 374.319 210.909 375C210.547 375.682 210.343 376.437 210.314 377.208C210.262 378.75 210.448 380.29 210.866 381.776C210.933 382.375 211.198 382.935 211.62 383.368C212.108 383.69 212.684 383.853 213.269 383.833C217.122 384.145 220.901 385.063 224.467 386.552C226.791 387.52 229.048 388.732 231.519 389.197C231.758 389.272 232.01 389.296 232.259 389.27C232.507 389.244 232.748 389.167 232.966 389.044C233.277 388.764 233.492 388.394 233.58 387.985C234.53 384.862 235.493 381.641 235.168 378.396C235.027 376.999 234.653 375.634 234.555 374.238C234.125 368.727 237.86 363.754 239.043 358.317C239.577 355.867 239.577 353.332 239.957 350.858C240.987 344.08 244.728 337.999 246.169 331.294C246.37 330.044 246.682 328.814 247.101 327.62C248.175 325.023 250.658 322.917 250.713 320.106C250.747 319.488 250.584 318.875 250.247 318.355C249.669 317.721 248.901 317.291 248.058 317.13C244.726 316.215 241.335 315.531 237.909 315.085C236.339 314.777 234.736 314.666 233.138 314.754C231.063 314.998 229.069 315.701 227.3 316.812C224.933 318.269 226.454 318.618 226.969 320.724Z" fill="black"/>
<path d="M214.968 413.012H209.737L206.315 342.812L206.076 338.819L210.522 337.258L210.823 341.501L214.968 413.012Z" fill="#565661"/>
<path opacity="0.1" d="M210.823 341.501L206.315 342.812L206.076 338.819L210.522 337.258L210.823 341.501Z" fill="black"/>
<path d="M280.602 427.861L271.974 428.902L232.224 338.819L221.505 338.036L202.679 343.522L199.018 450.775H190.39L193.787 339.603L173.127 340.13L136.26 431.774H128.417L167.191 324.668L168.687 320.541L226.472 318.563L240.877 326.627L241.061 327.093L280.602 427.861Z" fill="#565661"/>
<path opacity="0.1" d="M241.061 327.093C228.643 330.828 215.753 334.906 215.753 334.906C215.753 334.906 203.998 339.003 199.018 334.906C198.39 334.417 197.688 334.031 196.939 333.761C197.585 334.222 198.283 334.606 199.018 334.906L167.191 324.662L168.682 320.541L226.472 318.563L240.877 326.627L241.061 327.093Z" fill="black"/>
<path d="M182.283 309.316L205.813 304.093C205.813 304.093 262.034 314.54 266.216 318.716C266.216 318.716 221.241 327.852 216.274 330.963C211.307 334.074 181.755 337.515 182.283 309.316Z" fill="white"/>
<path d="M172.165 250.598C170.325 256.422 165.303 261.669 159.189 261.921C158.744 261.973 158.294 261.892 157.895 261.688C157.128 261.21 157.11 260.09 157.423 259.238C157.735 258.387 158.281 257.622 158.367 256.728C158.385 256.545 158.373 256.361 158.33 256.183C158.171 255.454 157.576 254.805 156.877 254.958C157.353 254.578 157.67 254.034 157.766 253.433C157.863 252.832 157.731 252.216 157.398 251.707C157.121 251.394 156.87 251.058 156.65 250.702C156.141 249.661 156.932 248.492 157.263 247.377C157.944 244.928 156.215 242.478 156.073 239.925C155.951 237.641 157.11 235.492 157.398 233.226C157.858 229.552 156.031 226.031 155.816 222.363C155.669 219.803 156.3 217.268 157.006 214.8C157.619 212.596 158.312 210.367 158.355 208.064C158.355 206.393 158.066 204.739 157.987 203.074C157.86 201.551 158.137 200.022 158.79 198.64C159.215 197.828 159.938 197.211 160.808 196.92C162.819 196.246 164.137 197.293 164.432 199.198C164.922 202.437 164.64 205.744 165.284 208.995C165.88 212.036 166.782 215.009 167.976 217.868C169.062 220.452 170.38 222.951 171.214 225.627C171.842 227.832 172.291 230.085 172.557 232.362C173.379 238.48 174.023 244.775 172.165 250.598Z" fill="#6C63FF"/>
<path d="M311.834 398.811C311.058 399.903 310.06 400.819 308.905 401.499C307.75 402.178 306.464 402.606 305.131 402.755C302.47 403.086 299.704 402.418 297.122 403.147C296.723 403.212 296.345 403.376 296.024 403.623C295.703 403.87 295.449 404.192 295.283 404.561C295.219 405.059 295.18 405.56 295.166 406.062C294.866 407.696 292.713 408.064 291.039 408.052L284.134 408.009C282.699 408.009 281.111 407.929 280.081 406.937C279.591 406.395 279.315 405.694 279.303 404.965C279.292 404.235 279.547 403.526 280.019 402.969C280.234 402.716 280.496 402.508 280.792 402.357C280.361 402.214 279.978 401.955 279.686 401.608C279.393 401.261 279.203 400.84 279.136 400.391C279.011 399.491 279.054 398.575 279.265 397.691C279.265 395.131 279.878 390.845 281.681 388.842C283.895 386.35 287.734 383.129 291.076 382.462C292.205 382.245 293.368 382.296 294.473 382.61C295.579 382.924 296.595 383.492 297.441 384.268C299.023 385.738 300.176 388.04 302.347 388.297C303.531 388.444 304.671 387.887 305.843 387.685C307.174 387.514 308.525 387.758 309.712 388.384C310.899 389.01 311.863 389.987 312.472 391.181C312.769 391.787 312.975 392.433 313.085 393.098C313.409 395.092 312.962 397.134 311.834 398.811Z" fill="#A26565"/>
<path opacity="0.1" d="M311.834 398.811C311.058 399.903 310.06 400.819 308.905 401.499C307.75 402.178 306.464 402.606 305.131 402.755C302.47 403.086 299.704 402.418 297.123 403.147C296.723 403.213 296.346 403.376 296.025 403.623C295.704 403.87 295.449 404.192 295.283 404.561C295.219 405.059 295.18 405.56 295.166 406.062C294.866 407.697 292.714 408.064 291.039 408.052L284.134 408.009C282.699 408.009 281.111 407.929 280.081 406.937C279.591 406.395 279.315 405.695 279.304 404.965C279.292 404.235 279.547 403.526 280.02 402.969C284.006 402.804 287.924 402.969 291.898 402.149C293.511 401.824 295.099 401.395 296.73 401.169C300.262 400.667 304.022 401.095 307.265 399.601C309.97 398.377 311.908 395.884 313.054 393.104C313.386 395.092 312.95 397.132 311.834 398.811V398.811Z" fill="black"/>
<path d="M293.615 389.13C291.162 391.028 288.286 392.51 285.195 392.669C282.105 392.829 278.824 391.445 277.309 388.762C275.096 384.825 277.058 379.351 274.347 375.738C273.501 374.605 272.281 373.803 271.386 372.707C270.49 371.611 269.975 369.963 270.772 368.8C269.81 369.167 268.792 368.237 268.509 367.245C268.227 366.253 268.405 365.187 268.234 364.183C267.786 361.519 265.167 359.811 263.91 357.447C262.653 355.083 262.825 352.015 262.684 349.217C262.37 342.399 259.829 335.871 255.448 330.632C254.614 329.64 253.547 328.63 252.247 328.679C252.473 326.438 250.977 324.294 249.039 323.168C247.102 322.041 244.796 321.661 242.551 321.441C219.905 319.212 196.308 327.619 174.685 320.547C168.669 318.581 162.868 315.293 159.189 310.137C157.756 308.175 156.73 305.946 156.173 303.581C155.616 301.217 155.538 298.766 155.945 296.371V296.285C156.797 291.938 159.097 290.866 162.905 288.882C167.301 286.561 171.896 284.637 176.635 283.132C185.834 280.26 195.737 279.225 205.23 281.332C209.664 282.324 213.938 283.965 218.378 284.926C220.126 285.306 221.886 285.575 223.658 285.802C226.411 286.145 229.177 286.371 231.949 286.69C240.812 287.709 249.54 289.669 257.986 292.538C261.132 293.603 264.278 294.822 266.983 296.751C269.122 298.302 270.93 300.263 272.303 302.519C273.676 304.775 274.586 307.281 274.979 309.892C275.237 311.692 275.243 313.566 275.635 315.311C276.007 316.778 276.499 318.212 277.107 319.598C282.347 332.534 286.628 345.838 289.917 359.4C290.104 360.408 290.45 361.379 290.941 362.278C291.726 363.546 293.076 364.397 293.867 365.665C295.706 368.653 293.934 372.823 295.565 375.934C296.129 377.011 297.068 377.863 297.632 378.94C299.472 382.474 296.755 386.699 293.615 389.13Z" fill="#454B69"/>
<path opacity="0.1" d="M262.279 318.771C263.15 318.082 263.903 317.255 264.505 316.322C265.109 315.384 265.349 314.258 265.179 313.156C265.418 314.55 265.327 315.981 264.913 317.333C264.499 318.686 263.773 319.923 262.794 320.945C261.255 322.519 258.366 324.062 256.116 323.523C256.435 321.723 260.85 319.983 262.279 318.771Z" fill="black"/>
<path opacity="0.1" d="M223.964 288.251C223.779 288.908 223.433 289.508 222.958 289.997C222.482 290.487 221.893 290.851 221.241 291.056C219.934 291.455 218.565 291.615 217.2 291.527H215.974C199.882 291.172 183.62 287.608 167.902 291.007C166.008 291.397 164.15 291.944 162.347 292.642C160.049 293.546 157.898 294.784 155.963 296.316V296.23C156.815 291.883 159.115 290.811 162.923 288.827C167.315 286.526 171.904 284.62 176.635 283.132C185.833 280.26 195.737 279.225 205.23 281.332C209.664 282.324 213.938 283.965 218.378 284.926C220.125 285.306 221.885 285.575 223.657 285.802C224.001 286.57 224.108 287.423 223.964 288.251V288.251Z" fill="black"/>
<path d="M223.964 287.376C223.78 288.033 223.435 288.635 222.96 289.126C222.484 289.617 221.894 289.981 221.241 290.186C219.934 290.586 218.564 290.744 217.2 290.652H215.974C199.883 290.297 183.62 286.733 167.903 290.131C166.009 290.522 164.151 291.067 162.347 291.76C159.941 292.718 157.697 294.04 155.693 295.679C155.223 294.389 154.755 293.097 154.289 291.803C153.725 290.26 155.515 289.917 155.859 288.533C156.086 287.596 155.699 286.531 155.503 285.533C155.453 285.288 155.42 285.041 155.405 284.792C155.294 282.581 156.086 281.307 157.901 280.113C163.285 276.562 169.853 274.124 175.997 272.294C179.264 271.262 182.638 270.609 186.054 270.346C190.886 270.065 195.713 270.959 200.416 272.092C206.199 273.518 211.92 275.404 217.047 278.423C219.561 279.887 222.014 281.724 223.369 284.332C223.91 285.249 224.12 286.323 223.964 287.376Z" fill="#A26565"/>
<path opacity="0.1" d="M172.165 250.598C170.325 256.422 165.303 261.669 159.189 261.92C158.744 261.972 158.294 261.891 157.895 261.688C157.128 261.21 157.11 260.089 157.423 259.238C157.735 258.387 158.281 257.622 158.367 256.728C158.385 256.545 158.373 256.361 158.33 256.183C161.574 251.615 164.72 246.997 165.965 241.59C166.217 240.659 166.294 239.69 166.192 238.731C166.026 237.628 165.468 236.63 165.162 235.565C164.622 233.679 164.873 231.683 165.027 229.729C165.665 221.128 164.227 212.499 160.832 204.568C160.004 202.657 159.06 200.722 158.772 198.683C159.196 197.871 159.919 197.254 160.789 196.962C162.801 196.289 164.119 197.336 164.413 199.24C164.904 202.48 164.622 205.786 165.266 209.038C165.861 212.079 166.763 215.051 167.958 217.911C169.043 220.495 170.362 222.993 171.196 225.669C171.824 227.875 172.273 230.128 172.539 232.405C173.379 238.48 174.023 244.775 172.165 250.598Z" fill="black"/>
<path opacity="0.1" d="M223.964 287.376C223.78 288.034 223.435 288.635 222.96 289.126C222.484 289.617 221.893 289.981 221.241 290.187C219.934 290.587 218.564 290.744 217.2 290.652H215.974C210.736 287.178 204.438 285.66 198.19 286.365C196.191 286.604 194.192 287.07 192.193 286.886C188.151 286.519 184.877 283.616 181.277 281.761C177.181 279.741 172.574 278.989 168.047 279.603C163.52 280.216 159.28 282.166 155.871 285.202L155.521 285.508C155.471 285.264 155.438 285.016 155.423 284.767C155.313 282.557 156.104 281.283 157.919 280.089C163.303 276.537 169.871 274.1 176.015 272.269C179.282 271.238 182.657 270.585 186.072 270.322C190.905 270.04 195.731 270.934 200.434 272.067C206.217 273.494 211.939 275.38 217.065 278.399C219.561 279.887 222.014 281.724 223.369 284.332C223.91 285.249 224.12 286.323 223.964 287.376Z" fill="black"/>
<path d="M237.719 220.299L237.633 220.52C236.259 224.077 233.733 227.084 232.114 230.55C230.072 234.94 229.569 239.864 229.115 244.689C228.723 248.822 228.336 252.98 228.649 257.126C229.434 267.34 234.432 277.027 235.769 287.045C236.098 289.359 236.182 291.701 236.02 294.032C235.91 295.508 235.64 297.094 234.659 298.184C233.678 299.274 231.77 299.703 230.716 298.655C231.188 297.755 231.666 296.861 232.144 295.961C229.342 293.787 225.123 295.349 221.848 293.989C220.407 293.377 219.254 292.275 218.046 291.289C215.289 289.05 212.112 287.385 208.701 286.39C205.29 285.395 201.714 285.091 198.184 285.496C196.185 285.741 194.185 286.206 192.186 286.023C188.145 285.649 184.871 282.753 181.271 280.897C177.175 278.878 172.569 278.127 168.042 278.739C163.516 279.351 159.275 281.299 155.865 284.333C155.006 285.129 153.853 286.059 152.799 285.557C152.391 285.308 152.062 284.949 151.848 284.522C147.831 277.67 150.787 268.834 155.08 262.159C159.372 255.485 165.057 249.331 166.823 241.597C167.078 240.666 167.155 239.696 167.05 238.737C166.884 237.635 166.326 236.637 166.02 235.571C165.48 233.685 165.732 231.689 165.885 229.735C166.528 221.133 165.094 212.502 161.703 204.568C160.721 202.284 159.556 199.969 159.556 197.489C159.556 193.582 162.359 190.343 164.677 187.202C167.344 183.589 169.583 179.59 172.962 176.62C176.163 173.797 180.799 172.07 184.76 173.503C191.491 171.871 198.42 171.197 205.34 171.501C207.732 171.611 210.203 171.862 212.3 173.02C214.545 174.244 216.158 176.424 218.365 177.729C219.978 178.69 221.836 179.143 223.59 179.817C228.433 181.705 232.431 185.276 234.849 189.871C237.302 194.617 237.915 200.073 238.455 205.388C238.97 210.391 239.46 215.59 237.719 220.299Z" fill="#6C63FF"/>
<path opacity="0.1" d="M228.649 257.126C229.434 267.34 234.432 277.027 235.769 287.045C233.095 284.786 229.373 282.514 228.876 279.887C228.324 277.045 226.558 273.322 226.264 270.45C225.969 267.579 227.987 264.07 225.871 262.098C224.841 261.137 227.582 261.406 226.576 260.42C224.314 258.222 223.756 254.836 223.614 251.694C223.375 246.134 224.081 240.513 223.056 235.044C222.443 231.67 221.162 228.456 220.137 225.179C218.948 221.364 218.089 217.458 217.231 213.545C216.386 210.066 215.771 206.535 215.391 202.976C215.127 199.914 215.25 196.668 216.618 193.876C217.985 191.084 220.751 188.818 223.854 188.861C234.23 188.996 232.439 203.043 234.72 209.534C235.634 212.118 236.866 214.616 237.363 217.311C237.544 218.367 237.643 219.436 237.658 220.507C236.284 224.065 233.757 227.072 232.138 230.537C230.096 234.928 229.594 239.851 229.14 244.677C228.723 248.822 228.336 252.98 228.649 257.126Z" fill="black"/>
<path d="M235.395 209.375C236.309 211.959 237.541 214.457 238.038 217.152C238.866 221.665 237.584 226.459 238.976 230.831C239.339 231.765 239.642 232.72 239.884 233.691C240.123 235.081 239.847 236.502 239.847 237.916C239.847 240.194 240.565 242.399 241.202 244.585C243.359 252.014 244.786 259.635 245.464 267.34C245.566 269.41 245.892 271.464 246.439 273.463C246.697 274.141 246.918 274.832 247.102 275.533C247.266 276.469 247.305 277.422 247.218 278.368C247.053 281.369 246.715 284.381 247.053 287.37C247.39 290.358 248.481 293.389 250.732 295.392C248.721 295.826 246.593 296.261 244.63 295.618C241.871 294.718 240.215 291.944 238.811 289.421C237.032 286.2 230.275 283.298 229.575 279.679C229.03 276.843 227.264 273.12 226.969 270.242C226.675 267.364 228.686 263.868 226.571 261.896C225.546 260.935 228.288 261.198 227.276 260.218C225.019 258.02 224.461 254.633 224.32 251.486C224.081 245.932 224.78 240.311 223.762 234.842C223.149 231.468 221.867 228.253 220.843 224.971C219.653 221.162 218.795 217.256 217.936 213.337C217.089 209.858 216.474 206.327 216.097 202.767C215.833 199.706 215.949 196.454 217.323 193.662C218.697 190.87 221.462 188.61 224.559 188.647C234.892 188.83 233.114 202.884 235.395 209.375Z" fill="#6C63FF"/>
<path opacity="0.1" d="M205.825 211.769C206.794 212.902 208.039 214.145 209.504 213.924C209.393 214.101 209.217 214.226 209.014 214.274C208.811 214.322 208.598 214.289 208.419 214.182C208.067 213.949 207.785 213.625 207.603 213.245L205.506 209.712C205.23 209.252 203.329 206.576 202.863 208.119C202.679 208.775 205.353 211.218 205.825 211.769Z" fill="black"/>
<path opacity="0.1" d="M204.697 220.581C204.636 219.426 204.149 218.335 203.329 217.519C202.592 216.851 201.732 216.334 200.797 215.994C198.497 215.051 195.774 214.292 193.278 214.414C194.186 215.737 197.099 216.527 198.558 217.274C200.627 218.34 202.673 219.442 204.697 220.581Z" fill="black"/>
<path opacity="0.1" d="M211.228 245.662C210.804 248.798 208.235 251.174 205.635 253.011C203.035 254.848 200.116 256.428 198.417 259.085C197.24 260.922 196.712 263.053 195.713 264.97C194.609 267.082 192.959 268.858 191.641 270.842C190.323 272.826 189.292 275.196 189.697 277.547C189.703 277.656 189.731 277.762 189.779 277.858C189.828 277.955 189.896 278.041 189.979 278.111C190.105 278.164 190.243 278.184 190.38 278.169C190.516 278.154 190.646 278.105 190.758 278.025C193.432 276.629 194.486 273.439 195.609 270.677C196.787 267.889 198.113 265.167 199.582 262.52C200.245 261.296 200.974 259.961 202.207 259.281C203.051 258.93 203.915 258.629 204.795 258.381C206.043 257.809 207.138 256.951 207.99 255.876C211.337 251.888 213.085 246.803 212.896 241.603C212.859 240.506 212.797 235.228 211.148 236.857C209.498 238.486 211.51 243.531 211.228 245.662Z" fill="black"/>
<path d="M215.269 125.415C220.542 127.712 225.08 132.764 224.915 138.489C224.774 144.502 219.733 150.167 221.468 155.929C222.474 159.272 225.503 161.513 227.901 164.055C237.032 173.705 237.014 190.551 227.852 200.183C224.344 203.857 219.837 206.472 216.127 209.981C203.047 222.289 202.489 243.581 209.492 260.108C204.126 261.267 198.657 261.882 193.168 261.945C190.598 261.945 187.452 261.51 186.52 259.116C185.662 256.905 187.134 253.917 185.441 252.282C184.644 251.517 183.448 251.413 182.375 251.235C175.47 250.121 169.804 244.615 167.216 238.131C164.628 231.646 164.763 224.347 166.247 217.525C167.302 212.596 168.951 207.17 166.504 202.761C163.438 197.213 154.62 194.874 154.755 188.53C154.865 183.332 161.004 180.803 164.487 176.939C170.914 169.823 167.854 158.782 167.841 149.193C167.841 140.755 170.797 132.047 177.089 126.426C186.447 117.994 204.47 120.731 215.269 125.415Z" fill="#A26565"/>
<g opacity="0.1">
<path opacity="0.1" d="M167.51 196.473C164.818 191.623 157.747 189.222 156.104 184.452C155.282 185.565 154.82 186.903 154.779 188.285C154.644 194.629 163.45 196.969 166.529 202.523C167.54 204.489 167.965 206.703 167.755 208.903C168.724 204.641 169.577 200.196 167.51 196.473Z" fill="black"/>
<path opacity="0.1" d="M222.174 148.078C223.277 144.864 224.878 141.618 224.958 138.281C224.969 137.919 224.959 137.557 224.927 137.197C223.694 140.883 221.806 144.459 222.174 148.078Z" fill="black"/>
<path opacity="0.1" d="M168.565 165.206C170.674 158.55 168.853 150.295 168.847 142.91C168.847 142.016 168.883 141.116 168.951 140.222C168.224 143.076 167.858 146.009 167.859 148.954C167.872 154.226 168.798 159.946 168.565 165.206Z" fill="black"/>
<path opacity="0.1" d="M228.876 193.919C225.368 197.593 220.861 200.208 217.151 203.716C210.528 209.944 207.125 218.474 206.272 227.518C207.855 220.783 211.05 214.58 216.17 209.76C219.849 206.27 224.387 203.667 227.895 199.963C232.067 195.422 234.49 189.55 234.733 183.393C233.673 187.327 231.662 190.942 228.876 193.919V193.919Z" fill="black"/>
<path opacity="0.1" d="M194.192 255.662C191.622 255.662 188.476 255.221 187.544 252.827C186.686 250.623 188.157 247.634 186.465 245.993C185.668 245.228 184.466 245.124 183.399 244.946C176.5 243.838 170.834 238.327 168.246 231.848C166.339 227.059 165.928 221.836 166.406 216.68C166.357 216.882 166.314 217.084 166.271 217.292C164.812 224.114 164.658 231.419 167.24 237.904C169.822 244.389 175.494 249.894 182.393 251.002C183.485 251.18 184.687 251.29 185.459 252.049C187.17 253.69 185.68 256.679 186.538 258.883C187.471 261.277 190.616 261.749 193.186 261.718C198.675 261.655 204.144 261.04 209.51 259.881C208.753 258.095 208.092 256.269 207.529 254.413C203.125 255.195 198.664 255.612 194.192 255.662V255.662Z" fill="black"/>
</g>
<path opacity="0.1" d="M214.275 228.958C215.79 230.097 217.433 225.755 216.495 224.671C216.244 224.953 214.042 228.798 214.275 228.958Z" fill="black"/>
<path opacity="0.1" d="M220.732 307.547C222.517 306.934 224.412 306.322 225.577 304.852C226.54 303.671 227.331 298.98 225.295 301.227C223.566 303.156 222.75 305.697 220.732 307.547Z" fill="black"/>
<path opacity="0.1" d="M238.902 302.63C238.688 304.075 238.289 305.575 237.265 306.616C237.075 306.812 236.652 306.934 236.597 306.671C237.741 306.063 238.804 305.314 239.761 304.442C241.834 302.391 242.116 297.339 238.958 295.998C238.927 298.215 239.24 300.376 238.902 302.63Z" fill="black"/>
<path d="M260.715 293.524C260.715 293.524 243.312 286.696 237.02 287.4C230.728 288.105 244.146 298.006 244.146 298.006L252.167 303.407C252.167 303.407 257.073 301.57 257.398 301.429C257.723 301.288 260.715 293.524 260.715 293.524Z" fill="#454B69"/>
<path d="M140.97 220.275C140.97 220.275 154.044 212.706 171.3 222.112C188.556 231.517 191.433 286.868 191.433 286.868C191.433 286.868 184.374 343.259 211.589 330.712C211.589 330.712 261.261 315.311 266.234 318.704C266.234 318.704 270.944 318.704 261.531 320.792C252.118 322.88 215.753 334.386 215.753 334.386C215.753 334.386 203.998 338.489 199.018 334.386C194.039 330.283 179.928 334.913 178.095 306.708C176.881 288.934 174.699 271.24 171.558 253.703L166.707 239.343L140.97 220.275Z" fill="#565661"/>
<path d="M139.4 307.485C139.4 307.485 145.152 250.304 135.72 229.674C127.515 211.695 159.244 220.103 167.522 222.552C168.804 222.935 169.921 223.732 170.699 224.818C175.605 231.707 193.204 259.318 188.017 296.261C188.017 296.261 185.925 329.163 198.999 334.38L158.716 321.423C155.448 320.369 152.13 319.494 148.782 318.734C144.514 317.767 137.56 315.017 139.4 307.485Z" fill="white"/>
<path d="M425.907 414.236H431.138L434.566 344.037L434.799 340.044L430.353 338.483L430.059 342.726L425.907 414.236Z" fill="#565661"/>
<path opacity="0.1" d="M430.059 342.726L434.566 344.037L434.799 340.044L430.353 338.483L430.059 342.726Z" fill="black"/>
<path d="M382.233 387.128C382.104 388.089 381.857 389.031 381.497 389.932C381.125 391.109 380.327 392.104 379.259 392.724C378.541 393.02 377.772 393.172 376.996 393.171C374.108 393.343 371.054 393.3 368.57 391.83C367.512 391.15 366.542 390.341 365.682 389.424C360.101 383.887 355.028 377.862 350.523 371.421C349.769 370.337 348.99 369.057 349.327 367.747C355.162 366.13 360.704 363.598 365.743 360.245C366.439 359.713 367.218 359.299 368.049 359.021C369.472 358.717 370.937 358.663 372.378 358.862C373.77 359.088 373.832 359.131 374.365 360.699C375.248 363.35 375.101 366.21 376.095 368.861C376.725 370.326 377.493 371.729 378.388 373.05C380.951 377.33 382.92 382.382 382.233 387.128Z" fill="#A26565"/>
<path opacity="0.1" d="M382.233 387.128C382.104 388.089 381.857 389.031 381.497 389.932C381.125 391.109 380.327 392.105 379.259 392.725C378.541 393.02 377.772 393.172 376.996 393.172C374.108 393.343 371.054 393.3 368.57 391.831C367.512 391.15 366.542 390.342 365.682 389.424C360.101 383.887 355.028 377.862 350.523 371.421C349.769 370.337 348.99 369.057 349.327 367.747C351.231 367.22 353.106 366.595 354.944 365.873L355.036 365.94C356.919 367.281 358.286 369.204 359.617 371.09L363.91 377.122C364.675 378.307 365.579 379.396 366.602 380.367C367.87 381.384 369.271 382.224 370.766 382.866C372.783 383.839 374.801 384.813 376.898 385.597C378.253 386.142 380.547 386.356 382.233 387.128Z" fill="black"/>
<path d="M386.195 321.735C385.772 322.752 385.259 323.73 384.661 324.656C378.962 334.213 374.565 344.487 371.587 355.206C370.741 355.016 370.263 356.167 370.269 357.043C370.275 357.918 370.269 359.021 369.459 359.339C369.22 359.431 368.95 359.431 368.717 359.535C368.202 359.768 368.055 360.423 367.982 360.986L367.258 366.289C367.007 368.126 366.786 370.116 367.687 371.739C368.309 372.704 369.116 373.536 370.06 374.189L382.031 383.619C382.521 384.005 383.128 384.415 383.717 384.2C385.06 383.711 383.87 381.31 384.944 380.337C385.655 379.669 386.783 380.171 387.771 380.092C389.058 379.994 390.033 378.812 390.358 377.569C390.587 376.303 390.609 375.009 390.426 373.735C390.345 373.155 390.412 372.563 390.622 372.015C390.988 371.434 391.491 370.953 392.088 370.612C394.165 369.098 395.838 367.098 396.962 364.788C398.085 362.478 398.625 359.928 398.533 357.361C398.435 356.58 398.464 355.788 398.619 355.016C398.868 354.309 399.244 353.653 399.729 353.081C404.076 347.208 407.701 340.834 411.3 334.472C413.373 330.797 415.483 327.068 416.206 322.929C416.269 322.775 416.295 322.608 416.282 322.442C416.269 322.277 416.218 322.116 416.132 321.974C416.047 321.831 415.929 321.71 415.788 321.621C415.648 321.532 415.489 321.476 415.323 321.459C413.527 320.899 411.696 320.462 409.841 320.149C404.205 319.01 398.766 317.252 393.284 315.562C387.801 313.872 387.844 317.314 386.195 321.735Z" fill="#454B69"/>
<path d="M360.273 429.086L368.908 430.127L408.651 340.044L419.37 339.26L438.203 344.747L441.858 452H450.486L447.089 340.828L467.748 341.355L504.616 432.999H512.459L473.684 325.893L472.194 321.766L414.403 319.788L399.999 327.852L399.815 328.318L360.273 429.086Z" fill="#565661"/>
<path opacity="0.1" d="M399.814 328.318C412.232 332.053 425.123 336.131 425.123 336.131C425.123 336.131 436.878 340.228 441.858 336.131C442.485 335.642 443.187 335.256 443.936 334.986C443.29 335.447 442.593 335.831 441.858 336.131L473.684 325.887L472.213 321.766L414.422 319.788L400.017 327.852L399.814 328.318Z" fill="black"/>
<path d="M458.593 310.541L435.063 305.318C435.063 305.318 378.842 315.764 374.66 319.941C374.66 319.941 419.634 329.077 424.601 332.188C429.568 335.298 459.12 338.74 458.593 310.541Z" fill="white"/>
<path d="M371.281 394.482C369.864 397.176 366.375 397.935 363.309 397.978C359.052 398.031 354.823 397.277 350.848 395.756C348.579 394.886 346.402 393.765 344.059 393.129C340.57 392.173 336.701 392.253 333.635 390.336C332.008 389.254 330.665 387.799 329.716 386.093C329.538 385.793 329.366 385.48 329.207 385.162C327.741 382.314 327.061 379.002 327.876 375.928C328.692 372.854 331.654 369.467 335.088 369.516C339.166 369.578 344.029 371.507 347.966 372.505C352.872 373.729 357.777 375.144 362.113 377.734C365.743 379.914 368.951 383.043 370.661 386.864C370.99 387.601 371.261 388.363 371.471 389.142C372.004 390.906 372.127 392.871 371.281 394.482Z" fill="#A26565"/>
<path opacity="0.1" d="M371.281 394.482C369.864 397.176 366.375 397.936 363.309 397.979C359.052 398.031 354.823 397.277 350.848 395.756C348.579 394.886 346.402 393.766 344.06 393.129C340.57 392.174 336.701 392.253 333.635 390.336C332.008 389.254 330.665 387.799 329.716 386.093C329.538 385.793 329.366 385.481 329.207 385.162C329.82 385.211 330.384 385.272 330.691 385.303C334.456 385.664 338.05 387.036 341.643 388.071C346.632 389.51 351.783 390.312 356.974 390.459C360.654 390.563 364.492 390.294 367.706 388.499C368.665 387.895 369.66 387.349 370.686 386.864C371.015 387.602 371.286 388.363 371.495 389.142C372.004 390.906 372.127 392.872 371.281 394.482Z" fill="black"/>
<path d="M397.631 278.05C389.659 276.746 381.54 276.427 373.458 276.109L363.572 275.717C362.869 275.635 362.157 275.721 361.493 275.968C360.922 276.335 360.378 276.744 359.868 277.193C358.875 277.866 357.605 277.94 356.41 278.007C347.927 278.474 339.49 279.567 331.169 281.277C326.876 282.153 322.418 283.298 319.193 286.255C315.783 289.384 314.287 294.155 314.17 298.772C314.054 303.389 315.268 307.926 316.55 312.36C318.181 317.697 319.083 323.229 319.23 328.808C319.172 330.355 319.231 331.905 319.407 333.443C319.693 334.912 320.126 336.348 320.701 337.729L325.215 349.762C325.613 350.815 326.006 351.862 326.441 352.891C326.876 353.92 327.293 354.728 327.668 355.696C328.219 357.018 328.655 358.39 329.09 359.756L332.095 369.18L332.488 370.404C333.573 373.797 334.683 377.251 336.731 380.165C338.779 383.08 341.95 385.432 345.513 385.609C346.662 385.566 347.813 385.597 348.959 385.701C349.935 385.939 350.883 386.282 351.786 386.724C354.461 387.833 357.333 388.394 360.23 388.371C362.898 388.371 365.86 387.63 367.307 385.389C368.104 384.164 368.312 382.658 368.533 381.212C368.92 378.31 369.294 375.279 368.306 372.523C367.693 370.876 366.663 369.461 365.952 367.839C364.958 365.628 364.633 363.185 363.989 360.852C362.596 355.83 359.76 351.326 355.833 347.894C354.438 342.38 353.414 336.779 352.767 331.128C352.677 329.877 352.428 328.642 352.025 327.454C351.308 325.617 349.854 324.129 349.247 322.255C348.677 320.516 348.849 318.508 347.812 317.008C356.44 319.377 364.983 318.845 373.942 318.704C376.811 318.713 379.678 318.549 382.527 318.214C383.855 317.971 385.2 317.827 386.55 317.785C389.322 317.785 391.922 319.01 394.467 320.088C401.66 323.149 409.24 325.556 417.052 325.887C425.116 326.223 433.088 324.331 440.968 322.457C444.433 321.631 448.033 320.737 450.78 318.465C453.527 316.193 455.072 312.096 453.38 308.98C452.092 306.634 449.425 305.483 446.935 304.503C440.042 301.785 433.113 299.133 426.471 295.845C416.328 290.909 408.743 279.887 397.631 278.05Z" fill="#454B69"/>
<path d="M383.417 250.347C382.454 252.429 380.835 254.131 379.639 256.091C377.639 259.317 376.979 263.195 377.799 266.899C378.23 268.73 379.077 270.438 380.273 271.891C381.469 273.345 382.983 274.505 384.698 275.282C386.23 275.891 387.84 276.279 389.481 276.433C391.64 276.697 393.94 276.752 395.847 275.711C397.274 274.855 398.445 273.633 399.238 272.171C400.887 269.416 401.826 266.311 402.684 263.219C404.272 257.512 405.628 251.658 405.431 245.736C405.364 243.697 404.959 241.401 403.267 240.225C402.393 239.721 401.424 239.404 400.421 239.294L392.333 237.849C390.769 237.567 388.04 236.422 386.685 237.549C385.33 238.676 385.226 242.007 384.993 243.568C384.625 245.877 384.398 248.222 383.417 250.347Z" fill="#A1616A"/>
<path d="M481.736 226.661L479.62 244.371C479.182 247.529 478.93 250.711 478.866 253.899C478.866 255.675 478.921 257.646 477.744 258.975C477.168 259.58 476.439 260.018 475.634 260.243C473.065 261.039 470.262 260.328 467.809 259.232C466.374 258.62 464.909 257.732 464.259 256.305C463.881 255.316 463.724 254.257 463.799 253.201C463.799 242.638 464.798 231.621 470.324 222.62C470.795 221.737 471.459 220.971 472.268 220.379C473.801 219.399 475.806 219.674 477.541 220.207C478.608 220.532 481.491 220.893 482.171 221.842C482.852 222.791 481.883 225.443 481.736 226.661Z" fill="#A1616A"/>
<path d="M425.607 162.622C437.799 162.622 447.683 152.752 447.683 140.577C447.683 128.402 437.799 118.533 425.607 118.533C413.414 118.533 403.53 128.402 403.53 140.577C403.53 152.752 413.414 162.622 425.607 162.622Z" fill="#A1616A"/>
<path d="M419.702 173.43C419.622 175.145 419.154 176.82 418.334 178.329C429.605 176.614 440.848 174.703 452.062 172.597C448.341 170.687 445.528 167.385 444.237 163.412C443.627 161.281 443.293 159.081 443.244 156.866C443.066 153.352 443.133 149.831 443.446 146.327C439.521 146.737 435.805 148.207 432.064 149.468C428.303 150.738 424.478 151.807 420.603 152.671C418.733 153.087 416.85 153.443 414.961 153.773C412.754 154.165 411.693 154.159 413.226 156.094C417.341 161.262 420.278 166.516 419.702 173.43Z" fill="#A1616A"/>
<path d="M426.484 170.484C423.571 170.919 420.517 171.409 418.193 173.209C417.308 173.968 416.467 174.775 415.673 175.628C411.055 180.104 404.536 181.905 398.931 185.064C398.017 185.516 397.207 186.152 396.552 186.932C395.939 187.783 395.626 188.867 394.982 189.712C394.234 190.692 393.051 191.304 392.468 192.388C391.885 193.472 392.014 194.623 391.953 195.774C391.812 198.303 390.855 200.704 390.113 203.123C386.71 214.702 388.574 227.616 383.423 238.553C383.66 239.183 384.022 239.759 384.488 240.245C384.954 240.731 385.514 241.118 386.133 241.382C387.43 241.848 388.783 242.139 390.156 242.246L401.568 243.66C403.2 243.862 404.929 244.052 406.419 243.372C405.056 247.125 404.092 251.01 403.543 254.964C403.266 257.381 402.835 259.778 402.255 262.141C400.685 267.529 396.736 272.018 392.057 275.086C391.468 275.394 390.971 275.853 390.616 276.415C390.003 277.639 390.91 279.011 391.554 280.211C393.425 283.689 393.167 287.866 393.143 291.809C393.118 295.753 393.517 300.082 396.276 302.911C397.907 304.583 400.14 305.489 402.31 306.352L420.161 313.474C423.107 314.727 426.146 315.75 429.25 316.536C433.953 317.607 438.841 317.565 443.667 317.356C446.855 317.222 450.04 317.018 453.221 316.744C454.486 316.74 455.729 316.413 456.833 315.795C457.783 315.046 458.513 314.057 458.948 312.929C461.432 307.534 462.266 301.239 466.117 296.72C468.76 293.616 472.863 291.136 473.163 287.076C473.304 285.055 472.403 283.089 472.39 281.062C472.39 278.57 473.697 276.2 473.617 273.714C473.451 269.667 469.631 266.58 469.024 262.576C467.478 252.423 472.642 242.282 475.812 232.515C476.383 230.77 477.118 228.841 478.799 228.094C480.479 227.347 482.846 227.739 483.447 226.086C484.962 221.934 485.323 217.066 485.127 212.651C485.017 210.097 484.109 207.599 484.213 205.039C484.287 203.239 484.863 201.488 485.017 199.693C485.25 196.981 484.532 194.286 483.79 191.665C483.576 190.73 483.255 189.822 482.834 188.959C482.381 188.176 481.846 187.443 481.239 186.773L478.253 183.227C476.855 181.568 475.377 179.847 473.347 179.008C472.691 177.385 470.594 176.265 469.091 175.371C467.577 174.513 466.012 173.746 464.406 173.074L447.518 165.628C446.886 165.311 446.21 165.092 445.512 164.979C444.484 164.945 443.463 165.155 442.532 165.592C437.381 167.631 432.003 169.664 426.484 170.484Z" fill="#6C63FF"/>
<path d="M408.596 144.41C407.946 142.126 406.284 140.155 406.032 137.791C405.806 135.691 406.732 133.658 407.259 131.612C407.786 129.567 407.768 127.069 406.143 125.709C405.873 125.477 405.53 125.268 405.431 124.925C405.235 124.313 405.855 123.756 406.045 123.137C406.394 121.913 404.88 120.559 405.431 119.384C405.744 118.741 406.529 118.514 407.216 118.312C409.841 117.534 412.502 115.808 413.072 113.132C415.127 113.989 417.316 112.378 418.892 110.817C420.468 109.255 422.406 107.474 424.577 107.945L424.092 108.931C427.439 107.717 431.1 107.676 434.474 108.815H433.444C436.403 108.865 439.273 109.834 441.655 111.589C441.391 111.589 441.367 111.98 441.471 112.201C442.33 114.203 444.537 115.263 446.665 115.759C447.947 116.065 449.339 116.285 450.277 117.204C451.215 118.122 451.234 120.039 449.995 120.48C452.521 121.462 454.913 122.758 457.115 124.338C457.728 124.785 458.421 125.391 458.341 126.175C458.253 126.568 458.126 126.952 457.961 127.32C457.838 127.973 457.883 128.647 458.09 129.279L458.77 132.084C459.519 135.201 460.107 138.954 457.832 141.214C458.684 142.803 459 144.624 458.734 146.406C458.467 148.189 457.633 149.838 456.354 151.11C456.535 151.657 456.597 152.236 456.537 152.809C456.477 153.382 456.297 153.935 456.007 154.433C455.717 154.931 455.325 155.363 454.857 155.698C454.388 156.034 453.853 156.267 453.288 156.382C454.042 157.558 453.349 159.235 452.16 159.97C450.97 160.705 449.474 160.711 448.088 160.583C446.702 160.454 445.298 160.142 443.912 160.35C441.894 160.662 439.92 162.034 437.976 161.422C437.251 161.112 436.555 160.739 435.897 160.307C434.535 159.578 432.953 159.413 431.445 159.082C428.873 158.531 426.431 157.491 424.252 156.021C422.807 155.153 421.655 153.874 420.946 152.347C419.597 148.942 421.866 144.478 419.481 141.704C418.082 140.087 415.311 140.063 413.747 141.447C412.968 142.139 412.864 143.596 412.054 144.117C410.925 144.402 409.757 144.501 408.596 144.41Z" fill="#464353"/>
<path opacity="0.1" d="M378.597 319.996C377.725 319.307 376.973 318.479 376.371 317.546C375.766 316.609 375.526 315.483 375.696 314.38C375.457 315.775 375.548 317.205 375.962 318.558C376.377 319.91 377.102 321.147 378.082 322.169C379.621 323.743 382.509 325.286 384.76 324.748C384.441 322.947 380.026 321.208 378.597 319.996Z" fill="black"/>
<path d="M499.906 221.499C499.906 221.499 486.832 213.931 469.575 223.336C452.319 232.742 449.443 288.092 449.443 288.092C449.443 288.092 456.501 344.484 429.286 331.937C429.286 331.937 379.614 316.536 374.641 319.928C374.641 319.928 369.931 319.928 379.345 322.017C388.758 324.105 425.122 335.611 425.122 335.611C425.122 335.611 436.878 339.713 441.857 335.611C446.837 331.508 460.947 336.137 462.781 307.932C463.994 290.159 466.176 272.464 469.318 254.927L474.168 240.568L499.906 221.499Z" fill="#565661"/>
<path d="M501.476 308.71C501.476 308.71 495.724 251.529 505.155 230.899C513.36 212.92 481.632 221.328 473.353 223.777C472.072 224.16 470.954 224.957 470.177 226.043C465.271 232.932 447.671 260.543 452.859 297.486C452.859 297.486 454.95 330.387 441.876 335.604L482.159 322.647C485.428 321.594 488.745 320.718 492.093 319.959C496.362 318.991 503.316 316.242 501.476 308.71Z" fill="white"/>
<path opacity="0.1" d="M607.08 419.9C640.081 419.9 666.834 415.61 666.834 410.317C666.834 405.024 640.081 400.734 607.08 400.734C574.08 400.734 547.327 405.024 547.327 410.317C547.327 415.61 574.08 419.9 607.08 419.9Z" fill="#6C63FF"/>
<path d="M609 226.729H605.155V313.174H609V226.729Z" fill="#535461"/>
<path d="M633.167 312.911L632.928 316.805L632.585 322.316L632.444 324.607L632.106 330.118L631.959 332.408L631.616 337.919L627.74 400.422C627.563 403.104 626.371 405.619 624.405 407.457C622.44 409.294 619.848 410.317 617.156 410.317H596.999C594.302 410.316 591.707 409.288 589.742 407.443C587.778 405.597 586.592 403.073 586.427 400.385L582.539 337.876L582.202 332.365L582.061 330.075L581.711 324.564L581.57 322.274L581.233 316.762L580.987 312.868C580.945 312.121 581.055 311.374 581.311 310.671C581.567 309.969 581.964 309.326 582.476 308.781C582.989 308.236 583.608 307.801 584.294 307.503C584.981 307.204 585.721 307.048 586.47 307.044H627.691C628.443 307.049 629.186 307.206 629.875 307.508C630.564 307.809 631.184 308.248 631.697 308.798C632.21 309.347 632.605 309.995 632.857 310.703C633.11 311.41 633.216 312.161 633.167 312.911V312.911Z" fill="#565661"/>
<path d="M632.928 316.805L632.584 322.298H581.576L581.232 316.805H632.928Z" fill="#9D9CB5"/>
<path d="M632.443 324.594L632.106 330.093H582.06L581.717 324.594H632.443Z" fill="#9D9CB5"/>
<path d="M631.959 332.384L631.616 337.876H582.545L582.202 332.384H631.959Z" fill="#9D9CB5"/>
<path d="M575.358 259.128C597.753 275.306 607.08 300.609 607.08 300.609C607.08 300.609 580.098 299.684 557.697 283.506C535.295 267.327 525.98 242.031 525.98 242.031C525.98 242.031 552.969 242.956 575.358 259.128Z" fill="#6C63FF"/>
<path d="M525.98 242.031C525.98 242.031 553.987 257.554 562.977 270.408C571.967 283.261 607.08 300.609 607.08 300.609" stroke="#535461" stroke-width="2" stroke-miterlimit="10"/>
<path d="M589.812 226.539C602.003 235.338 607.08 249.116 607.08 249.116C607.08 249.116 592.363 248.608 580.202 239.809C568.042 231.009 562.971 217.231 562.971 217.231C562.971 217.231 577.627 217.733 589.812 226.539Z" fill="#6C63FF"/>
<path d="M562.971 217.231C562.971 217.231 578.216 225.682 583.103 232.675C587.991 239.668 607.111 249.116 607.111 249.116" stroke="#535461" stroke-width="2" stroke-miterlimit="10"/>
<path d="M624.79 248.412C610.79 263.776 607.828 283.855 607.828 283.855C607.828 283.855 627.568 279.017 641.556 263.647C655.544 248.277 658.518 228.205 658.518 228.205C658.518 228.205 638.79 233.048 624.79 248.412Z" fill="#6C63FF"/>
<path d="M658.53 228.21C658.53 228.21 640.293 243.96 635.657 254.811C631.02 265.662 607.828 283.855 607.828 283.855" stroke="#535461" stroke-width="2" stroke-miterlimit="10"/>
<path d="M341.557 211.426V212.822H300.097V211.689C301.233 211.264 302.31 210.691 303.298 209.987C305.058 208.728 306.493 207.068 307.483 205.145C308.473 203.222 308.989 201.09 308.989 198.928C308.989 197.798 308.847 196.673 308.565 195.579C308.064 193.609 307.127 191.777 305.824 190.216C304.521 188.655 302.885 187.405 301.035 186.559H341.275C339.425 187.405 337.789 188.655 336.486 190.216C335.183 191.777 334.246 193.609 333.745 195.579C333.465 196.673 333.325 197.798 333.328 198.928C333.326 201.09 333.841 203.221 334.83 205.144C335.819 207.068 337.252 208.728 339.012 209.987C339.808 210.554 340.661 211.036 341.557 211.426V211.426Z" fill="#DFE6F5"/>
<path opacity="0.1" d="M341.275 186.559C339.426 187.405 337.789 188.655 336.486 190.216C335.183 191.777 334.246 193.609 333.745 195.578H308.566C308.064 193.609 307.128 191.777 305.825 190.216C304.521 188.655 302.885 187.405 301.035 186.559H341.275Z" fill="black"/>
<path d="M252.627 179.425V187.287C252.627 191.623 255.803 195.144 259.728 195.144H381.706C385.631 195.144 388.813 191.623 388.813 187.287V179.425H252.627Z" fill="#DFE6F5"/>
<path opacity="0.1" d="M341.557 211.426V212.822H300.097V211.689C301.233 211.264 302.31 210.691 303.298 209.987H339.012C339.808 210.554 340.661 211.036 341.557 211.426V211.426Z" fill="black"/>
<path d="M353.178 210.422H288.476C287.328 210.422 286.397 211.35 286.397 212.495C286.397 213.639 287.328 214.568 288.476 214.568H353.178C354.326 214.568 355.257 213.639 355.257 212.495C355.257 211.35 354.326 210.422 353.178 210.422Z" fill="#DFE6F5"/>
<path d="M388.813 93.3098C388.813 92.378 388.629 91.4555 388.272 90.5947C387.915 89.734 387.391 88.952 386.731 88.2935C386.071 87.635 385.288 87.1128 384.425 86.7568C383.563 86.4008 382.639 86.2179 381.706 86.2188H259.728C258.795 86.2179 257.872 86.4008 257.01 86.7569C256.148 87.113 255.365 87.6352 254.705 88.2939C254.045 88.9525 253.522 89.7345 253.166 90.5952C252.809 91.4559 252.626 92.3783 252.627 93.3098V180.955H388.813V93.3098Z" fill="#474157"/>
<path d="M385.097 96.4757V171.795C385.098 172.254 385.008 172.708 384.832 173.132C384.657 173.557 384.4 173.942 384.075 174.267C383.75 174.592 383.365 174.849 382.94 175.025C382.516 175.201 382.061 175.291 381.601 175.291H259.838C259.379 175.291 258.924 175.201 258.499 175.025C258.075 174.849 257.689 174.592 257.364 174.267C257.04 173.942 256.782 173.557 256.607 173.132C256.432 172.708 256.342 172.254 256.343 171.795V96.4757C256.34 95.863 256.501 95.2605 256.809 94.7306C257.116 94.1996 257.557 93.7588 258.089 93.4524C258.621 93.1461 259.224 92.985 259.838 92.9854H381.601C382.528 92.9854 383.417 93.3531 384.073 94.0077C384.728 94.6622 385.097 95.55 385.097 96.4757V96.4757Z" fill="#4C4C78"/>
<path d="M320.72 91.2341C321.624 91.2341 322.357 90.5021 322.357 89.5991C322.357 88.6961 321.624 87.9641 320.72 87.9641C319.816 87.9641 319.083 88.6961 319.083 89.5991C319.083 90.5021 319.816 91.2341 320.72 91.2341Z" fill="white"/>
<path d="M320.72 191.647C322.952 191.647 324.761 189.84 324.761 187.612C324.761 185.383 322.952 183.576 320.72 183.576C318.488 183.576 316.679 185.383 316.679 187.612C316.679 189.84 318.488 191.647 320.72 191.647Z" fill="white"/>
<path d="M385.097 96.4757H256.355C256.355 95.55 256.723 94.6622 257.379 94.0077C258.034 93.3531 258.923 92.9854 259.85 92.9854H381.601C382.528 92.9854 383.417 93.3531 384.073 94.0077C384.728 94.6622 385.097 95.55 385.097 96.4757Z" fill="#C8CAD7"/>
<path d="M259.838 95.6063C260.323 95.6063 260.715 95.2142 260.715 94.7306C260.715 94.247 260.323 93.855 259.838 93.855C259.354 93.855 258.961 94.247 258.961 94.7306C258.961 95.2142 259.354 95.6063 259.838 95.6063Z" fill="#EDEDF4"/>
<path d="M262.463 95.6063C262.947 95.6063 263.34 95.2142 263.34 94.7306C263.34 94.247 262.947 93.855 262.463 93.855C261.979 93.855 261.586 94.247 261.586 94.7306C261.586 95.2142 261.979 95.6063 262.463 95.6063Z" fill="#EDEDF4"/>
<path d="M265.087 95.6063C265.572 95.6063 265.964 95.2142 265.964 94.7306C265.964 94.247 265.572 93.855 265.087 93.855C264.603 93.855 264.21 94.247 264.21 94.7306C264.21 95.2142 264.603 95.6063 265.087 95.6063Z" fill="#EDEDF4"/>
</g>
<defs>
<linearGradient id="paint0_linear" x1="236.983" y1="286.42" x2="238.406" y2="286.42" gradientUnits="userSpaceOnUse">
<stop stop-color="#808080" stop-opacity="0.25"/>
<stop offset="0.54" stop-color="#808080" stop-opacity="0.12"/>
<stop offset="1" stop-color="#808080" stop-opacity="0.1"/>
</linearGradient>
<clipPath id="clip0">
<rect width="693" height="452" fill="white"/>
</clipPath>
</defs>
</svg>
